<?xml version="1.0" encoding="UTF-8" ?>
<svg version="1.1" width="39" height="38" xmlns="http://www.w3.org/2000/svg" shape-rendering="crispEdges">
<rect x="16" y="0" width="1" height="1" fill="#2867B2" opacity="0.439216" />
<rect x="17" y="0" width="1" height="1" fill="#2867B2" opacity="0.690196" />
<rect x="18" y="0" width="1" height="1" fill="#2867B2" opacity="0.752941" />
<rect x="19" y="0" width="1" height="1" fill="#2867B2" opacity="0.752941" />
<rect x="20" y="0" width="1" height="1" fill="#2867B2" opacity="0.752941" />
<rect x="21" y="0" width="1" height="1" fill="#2867B2" opacity="0.752941" />
<rect x="22" y="0" width="1" height="1" fill="#2867B2" opacity="0.501961" />
<rect x="23" y="0" width="1" height="1" fill="#2867B2" opacity="0.250980" />
<rect x="12" y="1" width="1" height="1" fill="#2867B2" opacity="0.125490" />
<rect x="13" y="1" width="1" height="1" fill="#2867B2" opacity="0.878431" />
<rect x="14" y="1" width="1" height="1" fill="#2867B2" />
<rect x="15" y="1" width="1" height="1" fill="#2867B2" />
<rect x="16" y="1" width="1" height="1" fill="#2867B2" />
<rect x="17" y="1" width="1" height="1" fill="#2867B2" />
<rect x="18" y="1" width="1" height="1" fill="#2867B2" />
<rect x="19" y="1" width="1" height="1" fill="#2867B2" />
<rect x="20" y="1" width="1" height="1" fill="#2867B2" />
<rect x="21" y="1" width="1" height="1" fill="#2867B2" />
<rect x="22" y="1" width="1" height="1" fill="#2867B2" />
<rect x="23" y="1" width="1" height="1" fill="#2867B2" />
<rect x="24" y="1" width="1" height="1" fill="#2867B2" />
<rect x="25" y="1" width="1" height="1" fill="#2867B2" />
<rect x="26" y="1" width="1" height="1" fill="#2867B2" opacity="0.501961" />
<rect x="10" y="2" width="1" height="1" fill="#2867B2" opacity="0.250980" />
<rect x="11" y="2" width="1" height="1" fill="#2867B2" />
<rect x="12" y="2" width="1" height="1" fill="#2867B2" />
<rect x="13" y="2" width="1" height="1" fill="#2867B2" />
<rect x="14" y="2" width="1" height="1" fill="#2867B2" />
<rect x="15" y="2" width="1" height="1" fill="#2867B2" />
<rect x="16" y="2" width="1" height="1" fill="#2867B2" />
<rect x="17" y="2" width="1" height="1" fill="#2867B2" opacity="0.752941" />
<rect x="18" y="2" width="1" height="1" fill="#2867B2" opacity="0.627451" />
<rect x="19" y="2" width="1" height="1" fill="#2867B2" opacity="0.501961" />
<rect x="20" y="2" width="1" height="1" fill="#2867B2" opacity="0.501961" />
<rect x="21" y="2" width="1" height="1" fill="#2867B2" opacity="0.752941" />
<rect x="22" y="2" width="1" height="1" fill="#2867B2" />
<rect x="23" y="2" width="1" height="1" fill="#2867B2" />
<rect x="24" y="2" width="1" height="1" fill="#2867B2" />
<rect x="25" y="2" width="1" height="1" fill="#2867B2" />
<rect x="26" y="2" width="1" height="1" fill="#2867B2" />
<rect x="27" y="2" width="1" height="1" fill="#2867B2" />
<rect x="28" y="2" width="1" height="1" fill="#2867B2" opacity="0.752941" />
<rect x="9" y="3" width="1" height="1" fill="#2867B2" opacity="0.941176" />
<rect x="10" y="3" width="1" height="1" fill="#2867B2" />
<rect x="11" y="3" width="1" height="1" fill="#2867B2" />
<rect x="12" y="3" width="1" height="1" fill="#2867B2" />
<rect x="13" y="3" width="1" height="1" fill="#2867B2" opacity="0.878431" />
<rect x="14" y="3" width="1" height="1" fill="#2867B2" opacity="0.125490" />
<rect x="25" y="3" width="1" height="1" fill="#2867B2" opacity="0.564706" />
<rect x="26" y="3" width="1" height="1" fill="#2867B2" />
<rect x="27" y="3" width="1" height="1" fill="#2867B2" />
<rect x="28" y="3" width="1" height="1" fill="#2867B2" />
<rect x="29" y="3" width="1" height="1" fill="#2867B2" />
<rect x="30" y="3" width="1" height="1" fill="#2867B2" opacity="0.313725" />
<rect x="7" y="4" width="1" height="1" fill="#2867B2" opacity="0.125490" />
<rect x="8" y="4" width="1" height="1" fill="#2867B2" />
<rect x="9" y="4" width="1" height="1" fill="#2867B2" />
<rect x="10" y="4" width="1" height="1" fill="#2867B2" />
<rect x="11" y="4" width="1" height="1" fill="#2867B2" opacity="0.815686" />
<rect x="27" y="4" width="1" height="1" fill="#2867B2" opacity="0.376471" />
<rect x="28" y="4" width="1" height="1" fill="#2867B2" />
<rect x="29" y="4" width="1" height="1" fill="#2867B2" />
<rect x="30" y="4" width="1" height="1" fill="#2867B2" />
<rect x="31" y="4" width="1" height="1" fill="#2867B2" opacity="0.815686" />
<rect x="6" y="5" width="1" height="1" fill="#2867B2" opacity="0.188235" />
<rect x="7" y="5" width="1" height="1" fill="#2867B2" />
<rect x="8" y="5" width="1" height="1" fill="#2867B2" />
<rect x="9" y="5" width="1" height="1" fill="#2867B2" />
<rect x="10" y="5" width="1" height="1" fill="#2867B2" opacity="0.125490" />
<rect x="29" y="5" width="1" height="1" fill="#2867B2" opacity="0.815686" />
<rect x="30" y="5" width="1" height="1" fill="#2867B2" />
<rect x="31" y="5" width="1" height="1" fill="#2867B2" />
<rect x="32" y="5" width="1" height="1" fill="#2867B2" opacity="0.941176" />
<rect x="5" y="6" width="1" height="1" fill="#2867B2" opacity="0.188235" />
<rect x="6" y="6" width="1" height="1" fill="#2867B2" />
<rect x="7" y="6" width="1" height="1" fill="#2867B2" />
<rect x="8" y="6" width="1" height="1" fill="#2867B2" />
<rect x="30" y="6" width="1" height="1" fill="#2867B2" opacity="0.376471" />
<rect x="31" y="6" width="1" height="1" fill="#2867B2" />
<rect x="32" y="6" width="1" height="1" fill="#2867B2" />
<rect x="33" y="6" width="1" height="1" fill="#2867B2" opacity="0.941176" />
<rect x="5" y="7" width="1" height="1" fill="#2867B2" />
<rect x="6" y="7" width="1" height="1" fill="#2867B2" />
<rect x="7" y="7" width="1" height="1" fill="#2867B2" />
<rect x="31" y="7" width="1" height="1" fill="#2867B2" opacity="0.376471" />
<rect x="32" y="7" width="1" height="1" fill="#2867B2" />
<rect x="33" y="7" width="1" height="1" fill="#2867B2" />
<rect x="34" y="7" width="1" height="1" fill="#2867B2" opacity="0.627451" />
<rect x="4" y="8" width="1" height="1" fill="#2867B2" />
<rect x="5" y="8" width="1" height="1" fill="#2867B2" />
<rect x="6" y="8" width="1" height="1" fill="#2867B2" />
<rect x="32" y="8" width="1" height="1" fill="#2867B2" opacity="0.564706" />
<rect x="33" y="8" width="1" height="1" fill="#2867B2" />
<rect x="34" y="8" width="1" height="1" fill="#2867B2" />
<rect x="35" y="8" width="1" height="1" fill="#2867B2" opacity="0.125490" />
<rect x="3" y="9" width="1" height="1" fill="#2867B2" opacity="0.376471" />
<rect x="4" y="9" width="1" height="1" fill="#2867B2" />
<rect x="5" y="9" width="1" height="1" fill="#2867B2" />
<rect x="6" y="9" width="1" height="1" fill="#2867B2" opacity="0.062745" />
<rect x="13" y="9" width="1" height="1" fill="#2867B2" />
<rect x="14" y="9" width="1" height="1" fill="#2867B2" />
<rect x="15" y="9" width="1" height="1" fill="#2867B2" />
<rect x="16" y="9" width="1" height="1" fill="#2867B2" />
<rect x="17" y="9" width="1" height="1" fill="#2867B2" />
<rect x="18" y="9" width="1" height="1" fill="#2867B2" />
<rect x="19" y="9" width="1" height="1" fill="#2867B2" />
<rect x="20" y="9" width="1" height="1" fill="#2867B2" />
<rect x="21" y="9" width="1" height="1" fill="#2867B2" />
<rect x="22" y="9" width="1" height="1" fill="#2867B2" />
<rect x="23" y="9" width="1" height="1" fill="#2867B2" />
<rect x="24" y="9" width="1" height="1" fill="#2867B2" opacity="0.690196" />
<rect x="33" y="9" width="1" height="1" fill="#2867B2" opacity="0.941176" />
<rect x="34" y="9" width="1" height="1" fill="#2867B2" />
<rect x="35" y="9" width="1" height="1" fill="#2867B2" />
<rect x="3" y="10" width="1" height="1" fill="#2867B2" />
<rect x="4" y="10" width="1" height="1" fill="#2867B2" />
<rect x="5" y="10" width="1" height="1" fill="#2867B2" opacity="0.690196" />
<rect x="13" y="10" width="1" height="1" fill="#2867B2" />
<rect x="14" y="10" width="1" height="1" fill="#2867B2" />
<rect x="15" y="10" width="1" height="1" fill="#2867B2" />
<rect x="16" y="10" width="1" height="1" fill="#2867B2" />
<rect x="17" y="10" width="1" height="1" fill="#2867B2" />
<rect x="18" y="10" width="1" height="1" fill="#2867B2" />
<rect x="19" y="10" width="1" height="1" fill="#2867B2" />
<rect x="20" y="10" width="1" height="1" fill="#2867B2" />
<rect x="21" y="10" width="1" height="1" fill="#2867B2" />
<rect x="22" y="10" width="1" height="1" fill="#2867B2" />
<rect x="23" y="10" width="1" height="1" fill="#2867B2" />
<rect x="24" y="10" width="1" height="1" fill="#2867B2" />
<rect x="25" y="10" width="1" height="1" fill="#2867B2" />
<rect x="26" y="10" width="1" height="1" fill="#2867B2" opacity="0.188235" />
<rect x="34" y="10" width="1" height="1" fill="#2867B2" />
<rect x="35" y="10" width="1" height="1" fill="#2867B2" />
<rect x="36" y="10" width="1" height="1" fill="#2867B2" opacity="0.376471" />
<rect x="2" y="11" width="1" height="1" fill="#2867B2" opacity="0.376471" />
<rect x="3" y="11" width="1" height="1" fill="#2867B2" />
<rect x="4" y="11" width="1" height="1" fill="#2867B2" />
<rect x="13" y="11" width="1" height="1" fill="#2867B2" />
<rect x="14" y="11" width="1" height="1" fill="#2867B2" />
<rect x="15" y="11" width="1" height="1" fill="#2867B2" />
<rect x="22" y="11" width="1" height="1" fill="#2867B2" opacity="0.376471" />
<rect x="23" y="11" width="1" height="1" fill="#2867B2" />
<rect x="24" y="11" width="1" height="1" fill="#2867B2" />
<rect x="25" y="11" width="1" height="1" fill="#2867B2" />
<rect x="26" y="11" width="1" height="1" fill="#2867B2" />
<rect x="34" y="11" width="1" height="1" fill="#2867B2" opacity="0.627451" />
<rect x="35" y="11" width="1" height="1" fill="#2867B2" />
<rect x="36" y="11" width="1" height="1" fill="#2867B2" />
<rect x="2" y="12" width="1" height="1" fill="#2867B2" />
<rect x="3" y="12" width="1" height="1" fill="#2867B2" />
<rect x="4" y="12" width="1" height="1" fill="#2867B2" opacity="0.627451" />
<rect x="13" y="12" width="1" height="1" fill="#2867B2" />
<rect x="14" y="12" width="1" height="1" fill="#2867B2" />
<rect x="15" y="12" width="1" height="1" fill="#2867B2" />
<rect x="24" y="12" width="1" height="1" fill="#2867B2" opacity="0.878431" />
<rect x="25" y="12" width="1" height="1" fill="#2867B2" />
<rect x="26" y="12" width="1" height="1" fill="#2867B2" />
<rect x="27" y="12" width="1" height="1" fill="#2867B2" opacity="0.564706" />
<rect x="35" y="12" width="1" height="1" fill="#2867B2" />
<rect x="36" y="12" width="1" height="1" fill="#2867B2" />
<rect x="37" y="12" width="1" height="1" fill="#2867B2" opacity="0.062745" />
<rect x="2" y="13" width="1" height="1" fill="#2867B2" />
<rect x="3" y="13" width="1" height="1" fill="#2867B2" />
<rect x="13" y="13" width="1" height="1" fill="#2867B2" />
<rect x="14" y="13" width="1" height="1" fill="#2867B2" />
<rect x="15" y="13" width="1" height="1" fill="#2867B2" />
<rect x="24" y="13" width="1" height="1" fill="#2867B2" opacity="0.062745" />
<rect x="25" y="13" width="1" height="1" fill="#2867B2" />
<rect x="26" y="13" width="1" height="1" fill="#2867B2" />
<rect x="27" y="13" width="1" height="1" fill="#2867B2" />
<rect x="35" y="13" width="1" height="1" fill="#2867B2" opacity="0.941176" />
<rect x="36" y="13" width="1" height="1" fill="#2867B2" />
<rect x="37" y="13" width="1" height="1" fill="#2867B2" opacity="0.690196" />
<rect x="1" y="14" width="1" height="1" fill="#2867B2" opacity="0.313725" />
<rect x="2" y="14" width="1" height="1" fill="#2867B2" />
<rect x="3" y="14" width="1" height="1" fill="#2867B2" />
<rect x="13" y="14" width="1" height="1" fill="#2867B2" />
<rect x="14" y="14" width="1" height="1" fill="#2867B2" />
<rect x="15" y="14" width="1" height="1" fill="#2867B2" />
<rect x="25" y="14" width="1" height="1" fill="#2867B2" />
<rect x="26" y="14" width="1" height="1" fill="#2867B2" />
<rect x="27" y="14" width="1" height="1" fill="#2867B2" />
<rect x="35" y="14" width="1" height="1" fill="#2867B2" opacity="0.376471" />
<rect x="36" y="14" width="1" height="1" fill="#2867B2" />
<rect x="37" y="14" width="1" height="1" fill="#2867B2" />
<rect x="1" y="15" width="1" height="1" fill="#2867B2" opacity="0.752941" />
<rect x="2" y="15" width="1" height="1" fill="#2867B2" />
<rect x="3" y="15" width="1" height="1" fill="#2867B2" opacity="0.815686" />
<rect x="13" y="15" width="1" height="1" fill="#2867B2" />
<rect x="14" y="15" width="1" height="1" fill="#2867B2" />
<rect x="15" y="15" width="1" height="1" fill="#2867B2" />
<rect x="24" y="15" width="1" height="1" fill="#2867B2" opacity="0.188235" />
<rect x="25" y="15" width="1" height="1" fill="#2867B2" />
<rect x="26" y="15" width="1" height="1" fill="#2867B2" />
<rect x="27" y="15" width="1" height="1" fill="#2867B2" opacity="0.941176" />
<rect x="36" y="15" width="1" height="1" fill="#2867B2" />
<rect x="37" y="15" width="1" height="1" fill="#2867B2" />
<rect x="1" y="16" width="1" height="1" fill="#2867B2" />
<rect x="2" y="16" width="1" height="1" fill="#2867B2" />
<rect x="3" y="16" width="1" height="1" fill="#2867B2" opacity="0.501961" />
<rect x="13" y="16" width="1" height="1" fill="#2867B2" />
<rect x="14" y="16" width="1" height="1" fill="#2867B2" />
<rect x="15" y="16" width="1" height="1" fill="#2867B2" />
<rect x="24" y="16" width="1" height="1" fill="#2867B2" />
<rect x="25" y="16" width="1" height="1" fill="#2867B2" />
<rect x="26" y="16" width="1" height="1" fill="#2867B2" />
<rect x="27" y="16" width="1" height="1" fill="#2867B2" opacity="0.376471" />
<rect x="36" y="16" width="1" height="1" fill="#2867B2" />
<rect x="37" y="16" width="1" height="1" fill="#2867B2" />
<rect x="0" y="17" width="1" height="1" fill="#2867B2" opacity="0.250980" />
<rect x="1" y="17" width="1" height="1" fill="#2867B2" />
<rect x="2" y="17" width="1" height="1" fill="#2867B2" />
<rect x="3" y="17" width="1" height="1" fill="#2867B2" opacity="0.250980" />
<rect x="13" y="17" width="1" height="1" fill="#2867B2" />
<rect x="14" y="17" width="1" height="1" fill="#2867B2" />
<rect x="15" y="17" width="1" height="1" fill="#2867B2" />
<rect x="16" y="17" width="1" height="1" fill="#2867B2" opacity="0.250980" />
<rect x="17" y="17" width="1" height="1" fill="#2867B2" opacity="0.250980" />
<rect x="18" y="17" width="1" height="1" fill="#2867B2" opacity="0.250980" />
<rect x="19" y="17" width="1" height="1" fill="#2867B2" opacity="0.250980" />
<rect x="20" y="17" width="1" height="1" fill="#2867B2" opacity="0.250980" />
<rect x="21" y="17" width="1" height="1" fill="#2867B2" opacity="0.376471" />
<rect x="22" y="17" width="1" height="1" fill="#2867B2" opacity="0.752941" />
<rect x="23" y="17" width="1" height="1" fill="#2867B2" />
<rect x="24" y="17" width="1" height="1" fill="#2867B2" />
<rect x="25" y="17" width="1" height="1" fill="#2867B2" />
<rect x="26" y="17" width="1" height="1" fill="#2867B2" />
<rect x="36" y="17" width="1" height="1" fill="#2867B2" />
<rect x="37" y="17" width="1" height="1" fill="#2867B2" />
<rect x="0" y="18" width="1" height="1" fill="#2867B2" opacity="0.250980" />
<rect x="1" y="18" width="1" height="1" fill="#2867B2" />
<rect x="2" y="18" width="1" height="1" fill="#2867B2" />
<rect x="3" y="18" width="1" height="1" fill="#2867B2" opacity="0.250980" />
<rect x="13" y="18" width="1" height="1" fill="#2867B2" />
<rect x="14" y="18" width="1" height="1" fill="#2867B2" />
<rect x="15" y="18" width="1" height="1" fill="#2867B2" />
<rect x="16" y="18" width="1" height="1" fill="#2867B2" />
<rect x="17" y="18" width="1" height="1" fill="#2867B2" />
<rect x="18" y="18" width="1" height="1" fill="#2867B2" />
<rect x="19" y="18" width="1" height="1" fill="#2867B2" />
<rect x="20" y="18" width="1" height="1" fill="#2867B2" />
<rect x="21" y="18" width="1" height="1" fill="#2867B2" />
<rect x="22" y="18" width="1" height="1" fill="#2867B2" />
<rect x="23" y="18" width="1" height="1" fill="#2867B2" />
<rect x="24" y="18" width="1" height="1" fill="#2867B2" />
<rect x="25" y="18" width="1" height="1" fill="#2867B2" />
<rect x="26" y="18" width="1" height="1" fill="#2867B2" opacity="0.627451" />
<rect x="36" y="18" width="1" height="1" fill="#2867B2" />
<rect x="37" y="18" width="1" height="1" fill="#2867B2" />
<rect x="38" y="18" width="1" height="1" fill="#2867B2" opacity="0.250980" />
<rect x="0" y="19" width="1" height="1" fill="#2867B2" opacity="0.250980" />
<rect x="1" y="19" width="1" height="1" fill="#2867B2" />
<rect x="2" y="19" width="1" height="1" fill="#2867B2" />
<rect x="3" y="19" width="1" height="1" fill="#2867B2" opacity="0.250980" />
<rect x="13" y="19" width="1" height="1" fill="#2867B2" />
<rect x="14" y="19" width="1" height="1" fill="#2867B2" />
<rect x="15" y="19" width="1" height="1" fill="#2867B2" />
<rect x="16" y="19" width="1" height="1" fill="#2867B2" />
<rect x="17" y="19" width="1" height="1" fill="#2867B2" />
<rect x="18" y="19" width="1" height="1" fill="#2867B2" />
<rect x="19" y="19" width="1" height="1" fill="#2867B2" />
<rect x="20" y="19" width="1" height="1" fill="#2867B2" />
<rect x="21" y="19" width="1" height="1" fill="#2867B2" />
<rect x="22" y="19" width="1" height="1" fill="#2867B2" />
<rect x="23" y="19" width="1" height="1" fill="#2867B2" />
<rect x="24" y="19" width="1" height="1" fill="#2867B2" />
<rect x="25" y="19" width="1" height="1" fill="#2867B2" opacity="0.376471" />
<rect x="36" y="19" width="1" height="1" fill="#2867B2" />
<rect x="37" y="19" width="1" height="1" fill="#2867B2" />
<rect x="38" y="19" width="1" height="1" fill="#2867B2" opacity="0.250980" />
<rect x="0" y="20" width="1" height="1" fill="#2867B2" opacity="0.250980" />
<rect x="1" y="20" width="1" height="1" fill="#2867B2" />
<rect x="2" y="20" width="1" height="1" fill="#2867B2" />
<rect x="3" y="20" width="1" height="1" fill="#2867B2" opacity="0.250980" />
<rect x="13" y="20" width="1" height="1" fill="#2867B2" />
<rect x="14" y="20" width="1" height="1" fill="#2867B2" />
<rect x="15" y="20" width="1" height="1" fill="#2867B2" />
<rect x="16" y="20" width="1" height="1" fill="#2867B2" opacity="0.501961" />
<rect x="17" y="20" width="1" height="1" fill="#2867B2" opacity="0.501961" />
<rect x="18" y="20" width="1" height="1" fill="#2867B2" opacity="0.501961" />
<rect x="19" y="20" width="1" height="1" fill="#2867B2" />
<rect x="20" y="20" width="1" height="1" fill="#2867B2" />
<rect x="21" y="20" width="1" height="1" fill="#2867B2" />
<rect x="22" y="20" width="1" height="1" fill="#2867B2" opacity="0.690196" />
<rect x="36" y="20" width="1" height="1" fill="#2867B2" />
<rect x="37" y="20" width="1" height="1" fill="#2867B2" />
<rect x="1" y="21" width="1" height="1" fill="#2867B2" />
<rect x="2" y="21" width="1" height="1" fill="#2867B2" />
<rect x="3" y="21" width="1" height="1" fill="#2867B2" opacity="0.501961" />
<rect x="13" y="21" width="1" height="1" fill="#2867B2" />
<rect x="14" y="21" width="1" height="1" fill="#2867B2" />
<rect x="15" y="21" width="1" height="1" fill="#2867B2" />
<rect x="19" y="21" width="1" height="1" fill="#2867B2" opacity="0.062745" />
<rect x="20" y="21" width="1" height="1" fill="#2867B2" opacity="0.941176" />
<rect x="21" y="21" width="1" height="1" fill="#2867B2" />
<rect x="22" y="21" width="1" height="1" fill="#2867B2" />
<rect x="23" y="21" width="1" height="1" fill="#2867B2" opacity="0.062745" />
<rect x="36" y="21" width="1" height="1" fill="#2867B2" />
<rect x="37" y="21" width="1" height="1" fill="#2867B2" />
<rect x="1" y="22" width="1" height="1" fill="#2867B2" opacity="0.690196" />
<rect x="2" y="22" width="1" height="1" fill="#2867B2" />
<rect x="3" y="22" width="1" height="1" fill="#2867B2" opacity="0.878431" />
<rect x="13" y="22" width="1" height="1" fill="#2867B2" />
<rect x="14" y="22" width="1" height="1" fill="#2867B2" />
<rect x="15" y="22" width="1" height="1" fill="#2867B2" />
<rect x="21" y="22" width="1" height="1" fill="#2867B2" />
<rect x="22" y="22" width="1" height="1" fill="#2867B2" />
<rect x="23" y="22" width="1" height="1" fill="#2867B2" />
<rect x="36" y="22" width="1" height="1" fill="#2867B2" />
<rect x="37" y="22" width="1" height="1" fill="#2867B2" />
<rect x="1" y="23" width="1" height="1" fill="#2867B2" opacity="0.250980" />
<rect x="2" y="23" width="1" height="1" fill="#2867B2" />
<rect x="3" y="23" width="1" height="1" fill="#2867B2" />
<rect x="13" y="23" width="1" height="1" fill="#2867B2" />
<rect x="14" y="23" width="1" height="1" fill="#2867B2" />
<rect x="15" y="23" width="1" height="1" fill="#2867B2" />
<rect x="21" y="23" width="1" height="1" fill="#2867B2" opacity="0.501961" />
<rect x="22" y="23" width="1" height="1" fill="#2867B2" />
<rect x="23" y="23" width="1" height="1" fill="#2867B2" />
<rect x="24" y="23" width="1" height="1" fill="#2867B2" opacity="0.690196" />
<rect x="35" y="23" width="1" height="1" fill="#2867B2" opacity="0.439216" />
<rect x="36" y="23" width="1" height="1" fill="#2867B2" />
<rect x="37" y="23" width="1" height="1" fill="#2867B2" />
<rect x="2" y="24" width="1" height="1" fill="#2867B2" />
<rect x="3" y="24" width="1" height="1" fill="#2867B2" />
<rect x="4" y="24" width="1" height="1" fill="#2867B2" opacity="0.062745" />
<rect x="13" y="24" width="1" height="1" fill="#2867B2" />
<rect x="14" y="24" width="1" height="1" fill="#2867B2" />
<rect x="15" y="24" width="1" height="1" fill="#2867B2" />
<rect x="22" y="24" width="1" height="1" fill="#2867B2" />
<rect x="23" y="24" width="1" height="1" fill="#2867B2" />
<rect x="24" y="24" width="1" height="1" fill="#2867B2" />
<rect x="25" y="24" width="1" height="1" fill="#2867B2" opacity="0.062745" />
<rect x="35" y="24" width="1" height="1" fill="#2867B2" />
<rect x="36" y="24" width="1" height="1" fill="#2867B2" />
<rect x="37" y="24" width="1" height="1" fill="#2867B2" opacity="0.627451" />
<rect x="2" y="25" width="1" height="1" fill="#2867B2" />
<rect x="3" y="25" width="1" height="1" fill="#2867B2" />
<rect x="4" y="25" width="1" height="1" fill="#2867B2" opacity="0.752941" />
<rect x="13" y="25" width="1" height="1" fill="#2867B2" />
<rect x="14" y="25" width="1" height="1" fill="#2867B2" />
<rect x="15" y="25" width="1" height="1" fill="#2867B2" />
<rect x="22" y="25" width="1" height="1" fill="#2867B2" opacity="0.062745" />
<rect x="23" y="25" width="1" height="1" fill="#2867B2" />
<rect x="24" y="25" width="1" height="1" fill="#2867B2" />
<rect x="25" y="25" width="1" height="1" fill="#2867B2" />
<rect x="35" y="25" width="1" height="1" fill="#2867B2" />
<rect x="36" y="25" width="1" height="1" fill="#2867B2" />
<rect x="2" y="26" width="1" height="1" fill="#2867B2" opacity="0.250980" />
<rect x="3" y="26" width="1" height="1" fill="#2867B2" />
<rect x="4" y="26" width="1" height="1" fill="#2867B2" />
<rect x="13" y="26" width="1" height="1" fill="#2867B2" />
<rect x="14" y="26" width="1" height="1" fill="#2867B2" />
<rect x="15" y="26" width="1" height="1" fill="#2867B2" />
<rect x="23" y="26" width="1" height="1" fill="#2867B2" opacity="0.690196" />
<rect x="24" y="26" width="1" height="1" fill="#2867B2" />
<rect x="25" y="26" width="1" height="1" fill="#2867B2" />
<rect x="26" y="26" width="1" height="1" fill="#2867B2" opacity="0.690196" />
<rect x="34" y="26" width="1" height="1" fill="#2867B2" opacity="0.878431" />
<rect x="35" y="26" width="1" height="1" fill="#2867B2" />
<rect x="36" y="26" width="1" height="1" fill="#2867B2" />
<rect x="3" y="27" width="1" height="1" fill="#2867B2" />
<rect x="4" y="27" width="1" height="1" fill="#2867B2" />
<rect x="5" y="27" width="1" height="1" fill="#2867B2" opacity="0.815686" />
<rect x="13" y="27" width="1" height="1" fill="#2867B2" />
<rect x="14" y="27" width="1" height="1" fill="#2867B2" />
<rect x="15" y="27" width="1" height="1" fill="#2867B2" />
<rect x="24" y="27" width="1" height="1" fill="#2867B2" />
<rect x="25" y="27" width="1" height="1" fill="#2867B2" />
<rect x="26" y="27" width="1" height="1" fill="#2867B2" />
<rect x="27" y="27" width="1" height="1" fill="#2867B2" opacity="0.062745" />
<rect x="33" y="27" width="1" height="1" fill="#2867B2" opacity="0.062745" />
<rect x="34" y="27" width="1" height="1" fill="#2867B2" />
<rect x="35" y="27" width="1" height="1" fill="#2867B2" />
<rect x="36" y="27" width="1" height="1" fill="#2867B2" opacity="0.250980" />
<rect x="3" y="28" width="1" height="1" fill="#2867B2" opacity="0.250980" />
<rect x="4" y="28" width="1" height="1" fill="#2867B2" />
<rect x="5" y="28" width="1" height="1" fill="#2867B2" />
<rect x="6" y="28" width="1" height="1" fill="#2867B2" opacity="0.188235" />
<rect x="13" y="28" width="1" height="1" fill="#2867B2" />
<rect x="14" y="28" width="1" height="1" fill="#2867B2" />
<rect x="15" y="28" width="1" height="1" fill="#2867B2" />
<rect x="24" y="28" width="1" height="1" fill="#2867B2" opacity="0.125490" />
<rect x="25" y="28" width="1" height="1" fill="#2867B2" />
<rect x="26" y="28" width="1" height="1" fill="#2867B2" />
<rect x="27" y="28" width="1" height="1" fill="#2867B2" />
<rect x="33" y="28" width="1" height="1" fill="#2867B2" />
<rect x="34" y="28" width="1" height="1" fill="#2867B2" />
<rect x="35" y="28" width="1" height="1" fill="#2867B2" />
<rect x="4" y="29" width="1" height="1" fill="#2867B2" opacity="0.941176" />
<rect x="5" y="29" width="1" height="1" fill="#2867B2" />
<rect x="6" y="29" width="1" height="1" fill="#2867B2" />
<rect x="32" y="29" width="1" height="1" fill="#2867B2" opacity="0.815686" />
<rect x="33" y="29" width="1" height="1" fill="#2867B2" />
<rect x="34" y="29" width="1" height="1" fill="#2867B2" />
<rect x="5" y="30" width="1" height="1" fill="#2867B2" />
<rect x="6" y="30" width="1" height="1" fill="#2867B2" />
<rect x="7" y="30" width="1" height="1" fill="#2867B2" />
<rect x="31" y="30" width="1" height="1" fill="#2867B2" opacity="0.627451" />
<rect x="32" y="30" width="1" height="1" fill="#2867B2" />
<rect x="33" y="30" width="1" height="1" fill="#2867B2" />
<rect x="34" y="30" width="1" height="1" fill="#2867B2" opacity="0.376471" />
<rect x="5" y="31" width="1" height="1" fill="#2867B2" opacity="0.062745" />
<rect x="6" y="31" width="1" height="1" fill="#2867B2" />
<rect x="7" y="31" width="1" height="1" fill="#2867B2" />
<rect x="8" y="31" width="1" height="1" fill="#2867B2" />
<rect x="9" y="31" width="1" height="1" fill="#2867B2" opacity="0.062745" />
<rect x="30" y="31" width="1" height="1" fill="#2867B2" opacity="0.752941" />
<rect x="31" y="31" width="1" height="1" fill="#2867B2" />
<rect x="32" y="31" width="1" height="1" fill="#2867B2" />
<rect x="33" y="31" width="1" height="1" fill="#2867B2" opacity="0.690196" />
<rect x="6" y="32" width="1" height="1" fill="#2867B2" opacity="0.062745" />
<rect x="7" y="32" width="1" height="1" fill="#2867B2" />
<rect x="8" y="32" width="1" height="1" fill="#2867B2" />
<rect x="9" y="32" width="1" height="1" fill="#2867B2" />
<rect x="10" y="32" width="1" height="1" fill="#2867B2" opacity="0.376471" />
<rect x="29" y="32" width="1" height="1" fill="#2867B2" opacity="0.941176" />
<rect x="30" y="32" width="1" height="1" fill="#2867B2" />
<rect x="31" y="32" width="1" height="1" fill="#2867B2" />
<rect x="32" y="32" width="1" height="1" fill="#2867B2" opacity="0.815686" />
<rect x="8" y="33" width="1" height="1" fill="#2867B2" />
<rect x="9" y="33" width="1" height="1" fill="#2867B2" />
<rect x="10" y="33" width="1" height="1" fill="#2867B2" />
<rect x="11" y="33" width="1" height="1" fill="#2867B2" />
<rect x="12" y="33" width="1" height="1" fill="#2867B2" opacity="0.125490" />
<rect x="27" y="33" width="1" height="1" fill="#2867B2" opacity="0.627451" />
<rect x="28" y="33" width="1" height="1" fill="#2867B2" />
<rect x="29" y="33" width="1" height="1" fill="#2867B2" />
<rect x="30" y="33" width="1" height="1" fill="#2867B2" />
<rect x="31" y="33" width="1" height="1" fill="#2867B2" opacity="0.501961" />
<rect x="9" y="34" width="1" height="1" fill="#2867B2" opacity="0.752941" />
<rect x="10" y="34" width="1" height="1" fill="#2867B2" />
<rect x="11" y="34" width="1" height="1" fill="#2867B2" />
<rect x="12" y="34" width="1" height="1" fill="#2867B2" />
<rect x="13" y="34" width="1" height="1" fill="#2867B2" />
<rect x="14" y="34" width="1" height="1" fill="#2867B2" opacity="0.439216" />
<rect x="24" y="34" width="1" height="1" fill="#2867B2" opacity="0.188235" />
<rect x="25" y="34" width="1" height="1" fill="#2867B2" opacity="0.878431" />
<rect x="26" y="34" width="1" height="1" fill="#2867B2" />
<rect x="27" y="34" width="1" height="1" fill="#2867B2" />
<rect x="28" y="34" width="1" height="1" fill="#2867B2" />
<rect x="29" y="34" width="1" height="1" fill="#2867B2" />
<rect x="30" y="34" width="1" height="1" fill="#2867B2" opacity="0.062745" />
<rect x="10" y="35" width="1" height="1" fill="#2867B2" opacity="0.062745" />
<rect x="11" y="35" width="1" height="1" fill="#2867B2" opacity="0.941176" />
<rect x="12" y="35" width="1" height="1" fill="#2867B2" />
<rect x="13" y="35" width="1" height="1" fill="#2867B2" />
<rect x="14" y="35" width="1" height="1" fill="#2867B2" />
<rect x="15" y="35" width="1" height="1" fill="#2867B2" />
<rect x="16" y="35" width="1" height="1" fill="#2867B2" />
<rect x="17" y="35" width="1" height="1" fill="#2867B2" />
<rect x="18" y="35" width="1" height="1" fill="#2867B2" />
<rect x="19" y="35" width="1" height="1" fill="#2867B2" opacity="0.752941" />
<rect x="20" y="35" width="1" height="1" fill="#2867B2" opacity="0.878431" />
<rect x="21" y="35" width="1" height="1" fill="#2867B2" />
<rect x="22" y="35" width="1" height="1" fill="#2867B2" />
<rect x="23" y="35" width="1" height="1" fill="#2867B2" />
<rect x="24" y="35" width="1" height="1" fill="#2867B2" />
<rect x="25" y="35" width="1" height="1" fill="#2867B2" />
<rect x="26" y="35" width="1" height="1" fill="#2867B2" />
<rect x="27" y="35" width="1" height="1" fill="#2867B2" />
<rect x="28" y="35" width="1" height="1" fill="#2867B2" opacity="0.376471" />
<rect x="13" y="36" width="1" height="1" fill="#2867B2" opacity="0.627451" />
<rect x="14" y="36" width="1" height="1" fill="#2867B2" />
<rect x="15" y="36" width="1" height="1" fill="#2867B2" />
<rect x="16" y="36" width="1" height="1" fill="#2867B2" />
<rect x="17" y="36" width="1" height="1" fill="#2867B2" />
<rect x="18" y="36" width="1" height="1" fill="#2867B2" />
<rect x="19" y="36" width="1" height="1" fill="#2867B2" />
<rect x="20" y="36" width="1" height="1" fill="#2867B2" />
<rect x="21" y="36" width="1" height="1" fill="#2867B2" />
<rect x="22" y="36" width="1" height="1" fill="#2867B2" />
<rect x="23" y="36" width="1" height="1" fill="#2867B2" />
<rect x="24" y="36" width="1" height="1" fill="#2867B2" />
<rect x="25" y="36" width="1" height="1" fill="#2867B2" opacity="0.878431" />
<rect x="26" y="36" width="1" height="1" fill="#2867B2" opacity="0.188235" />
<rect x="16" y="37" width="1" height="1" fill="#2867B2" opacity="0.062745" />
<rect x="17" y="37" width="1" height="1" fill="#2867B2" opacity="0.376471" />
<rect x="18" y="37" width="1" height="1" fill="#2867B2" opacity="0.501961" />
<rect x="19" y="37" width="1" height="1" fill="#2867B2" opacity="0.501961" />
<rect x="20" y="37" width="1" height="1" fill="#2867B2" opacity="0.501961" />
<rect x="21" y="37" width="1" height="1" fill="#2867B2" opacity="0.501961" />
<rect x="22" y="37" width="1" height="1" fill="#2867B2" opacity="0.250980" />
</svg>